inDegrees=no
num_controls=7
num_derivatives=13
num_iterations=175
num_multipliers=7
num_parameters=0
num_slacks=7
num_states=26
objective=6.223564
objective_accelerations=0.517003
objective_balance=0.065175
objective_effort=0.481924
objective_height=5.062546
objective_ligament=0.096915
solver_duration=1495.035757
status=Solve_Succeeded
success=true
DataType=double
version=3
OpenSimVersion=4.4-2022-07-23-0e9fedc
endheader
time	/jointset/ground_pelvis/pelvis_tilt/value	/jointset/ground_pelvis/pelvis_tx/value	/jointset/ground_pelvis/pelvis_ty/value	/jointset/hip_r/hip_flexion_r/value	/jointset/hip_r/hip_adduction_r/value	/jointset/hip_r/hip_rotation_r/value	/jointset/back/lumbar_extension/value	/jointset/patellofemoral_r/patellar_flexion_r/value	/jointset/knee_r/knee_flexion_r/value	/jointset/knee_r/knee_adduction_r/value	/jointset/knee_r/knee_rotation_r/value	/jointset/ankle_r/ankle_angle_r/value	/jointset/subtalar_r/subtalar_angle_r/value	/jointset/ground_pelvis/pelvis_tilt/speed	/jointset/ground_pelvis/pelvis_tx/speed	/jointset/ground_pelvis/pelvis_ty/speed	/jointset/hip_r/hip_flexion_r/speed	/jointset/hip_r/hip_adduction_r/speed	/jointset/hip_r/hip_rotation_r/speed	/jointset/back/lumbar_extension/speed	/jointset/patellofemoral_r/patellar_flexion_r/speed	/jointset/knee_r/knee_flexion_r/speed	/jointset/knee_r/knee_adduction_r/speed	/jointset/knee_r/knee_rotation_r/speed	/jointset/ankle_r/ankle_angle_r/speed	/jointset/subtalar_r/subtalar_angle_r/speed	/forceset/tau_hip_flexion_r	/forceset/tau_hip_adduction_r	/forceset/tau_hip_rotation_r	/forceset/tau_knee_flexion_r	/forceset/tau_ankle_angle_r	/forceset/tau_subtalar_angle_r	/forceset/tau_lumbar_extension	lambda_cid13_p0	lambda_cid14_p0	lambda_cid14_p1	lambda_cid14_p2	lambda_cid14_p3	lambda_cid14_p4	lambda_cid14_p5	/jointset/ground_pelvis/pelvis_tilt/accel	/jointset/ground_pelvis/pelvis_tx/accel	/jointset/ground_pelvis/pelvis_ty/accel	/jointset/hip_r/hip_flexion_r/accel	/jointset/hip_r/hip_adduction_r/accel	/jointset/hip_r/hip_rotation_r/accel	/jointset/back/lumbar_extension/accel	/jointset/patellofemoral_r/patellar_flexion_r/accel	/jointset/knee_r/knee_flexion_r/accel	/jointset/knee_r/knee_adduction_r/accel	/jointset/knee_r/knee_rotation_r/accel	/jointset/ankle_r/ankle_angle_r/accel	/jointset/subtalar_r/subtalar_angle_r/accel	gamma_cid13_p0	gamma_cid14_p0	gamma_cid14_p1	gamma_cid14_p2	gamma_cid14_p3	gamma_cid14_p4	gamma_cid14_p5
0	-0.006516717535780175	0.09626122233040457	0.9427240277519578	0.1762555651711513	-0.2321527108613783	-0.2616407635336818	-0.0385979564078546	0.07317816487762414	0.07317816487761825	0.1745329251994329	0.1745329174917576	0.0324735960626065	-0.003451807799167008	0	0	0	0	0	0	0	0	0	0	0	0	0	0.2402976680863954	-0.1838671675995421	-0.04980573304704571	-0.4435276232279599	0.4625555097081936	-0.1455623220595338	-0.1307559724597639	-39.07633933450307	99.01614199410017	-36.16410224677049	-4.873184852290331	-51.41701079664898	-678.7523653720135	66.50057718751874	-1.94742173008369	-0.7636306874765255	-0.5960948970759403	8.528888876609392	0.0284187595898122	2.538115287790965	-4.764568777583358	9.406538855745756	9.406538855742879	-2.587575042143123	0.1937203380063318	3.606707300362645	0.839332254704118	9.145355331348021e-08	3.318289011684224e-08	-6.707924663680744e-07	2.09753376227201e-07	4.553977333043764e-08	-1.200405953643111e-08	-3.578936312528169e-07
0.01	-0.00660742507024141	0.09622344667589264	0.9426953564541465	0.1766678418681547	-0.2321503081686205	-0.2615057086946533	-0.03883883143426681	0.07363523903936887	0.07363523903936134	0.1744041904409921	0.1745307405020975	0.03264951437313368	-0.003409929268017334	-0.01804325885849191	-0.007544211200211963	-0.005723527035342164	0.08209768366892478	0.0004227641220521167	0.02689045701301281	-0.04786708533689701	0.09103321292199766	0.0910332129219882	-0.02551185740135168	-0.0004269546540119971	0.03499265407498503	0.008271471927929304	0.2337022297461726	-0.1991682687985284	-0.0478714931557159	-0.4336683263737591	0.4441931504905919	-0.1257169808704534	-0.1256425745436318	-39.09161602437664	93.85251850341642	-28.54107700179876	-5.9837679531988	-48.3086758749595	-679.0166032759191	80.97480407873445	-1.718037022530503	-0.7481692733923966	-0.558874128526654	7.996562640301157	0.04047553783382966	2.746485497533887	-4.751590419665931	8.89445130579854	8.894451305798915	-2.497724706855564	-0.1595762132166567	3.416906822851419	0.8053384764402723	1.261609693729148e-07	3.262209772458801e-08	-9.292678419876157e-07	2.075857280457865e-07	7.669832468768037e-08	-1.697980015345858e-07	-4.292876251942904e-07
0.02	-0.006875617005052671	0.09611055832195836	0.9426097713816295	0.1778903663075	-0.2321454237747776	-0.2611053543676004	-0.03954913971563231	0.07499119308940552	0.07499119308940742	0.1740273875840697	0.1745245593966391	0.03316963169676805	-0.003288479254667827	-0.03549688006891429	-0.01502253988446535	-0.01138275494115154	0.1620495484685315	0.0004963402169418231	0.05305989760511972	-0.09388665099069624	0.179775977658866	0.1797759776588621	-0.0496130595116776	-0.000800823152489334	0.06883980262136746	0.01591429643997525	0.2271067914059888	-0.2144693699975213	-0.04593725326432991	-0.4238090295195406	0.4258307912729988	-0.105871639681379	-0.1205291766274754	-39.136847573441	88.77147207681924	-20.9217736714248	-7.072990603346769	-45.40652618918706	-678.0423310141024	95.22920406602307	-1.829494200469653	-0.7504541842849464	-0.5832350711693791	8.099725102745806	-0.04141884584266604	2.393912003609656	-4.395064840963714	8.94844921871992	8.948449218720059	-2.305443983937977	0.2043375691133916	3.377606194641971	0.7136027715274145	1.608683854323493e-07	3.206130533233378e-08	-1.187743217607157e-06	2.05418079864372e-07	1.078568760449231e-07	-3.275919435327406e-07	-5.006816191357639e-07
0.03	-0.007315824865940428	0.09592332804189646	0.9424676900154727	0.1799022157471709	-0.2321414646584525	-0.2604488204590977	-0.04070997287100998	0.07722375253189823	0.07722375253188693	0.1734166992752647	0.1745166426014864	0.03402275192886587	-0.003093552813083387	-0.05244991204575795	-0.0223996346631403	-0.01703797546558463	0.2399472812042431	0.0002521069404650107	0.07811619379614837	-0.137968382609901	0.2663422885452282	0.2663422885452265	-0.07229167351108401	-0.0007933165960123572	0.1016036897330971	0.02298579056721472	0.220327976827568	-0.2027587982551209	-0.04419779689129819	-0.4150255512536545	0.414515332858456	-0.1108956589291554	-0.1152530151027644	-39.21088597332541	84.98575638332932	-23.77089597141852	-6.613806331567313	-42.80965035251182	-677.4515548348385	88.34059198944391	-1.613978300695926	-0.7277332080458447	-0.5574002753181749	7.578843972866711	-0.02256773412144063	2.541947812665241	-4.367987700917029	8.451646365742123	8.451646365742324	-2.21429660188073	-0.1025795446185685	3.198725366492356	0.6909787857907922	1.711823038563646e-07	2.378586233590679e-08	-1.270492711175495e-06	1.79000434124922e-07	1.25637739162733e-07	-4.519233487394298e-07	-5.077116692184086e-07
0.04	-0.00792271716748209	0.09566304759736995	0.9422689094976244	0.1826818518369769	-0.2321412763080072	-0.2595456317115282	-0.04230227541828263	0.0803101599516733	0.08031015995167375	0.1725861795277157	0.1745084935232195	0.03519810011149122	-0.002830500219732862	-0.06883376819876563	-0.02963257277738997	-0.02272258527945764	0.3156068784952612	-0.0002578129588645209	0.1023908654198049	-0.1801805293698131	0.350545573117501	0.350545573117501	-0.09357934726804147	-0.000847279780872584	0.1332853927269821	0.02953952679319707	0.2135491622492136	-0.1910482265127175	-0.04245834051811624	-0.4062420729877424	0.4031998744439331	-0.1159196781769265	-0.109976853578018	-39.31216683221924	81.27586208968582	-26.62905625943559	-6.127692791997264	-40.40240285334115	-675.7205236934913	81.23791994577797	-1.715659035702332	-0.7216228514000241	-0.5891129290573588	7.652098013807141	-0.09455617041320104	2.237587090135163	-4.021147869105077	8.475843955902013	8.475843955902088	-2.027255935448206	0.1920436208460191	3.161169371072913	0.6100511912759651	1.809932635662474e-07	1.535135437856902e-08	-1.349618990680921e-06	1.520827884358217e-07	1.431427736570495e-07	-5.755648047339237e-07	-5.134146276750981e-07
0.05	-0.008691125776319399	0.09533105051908317	0.9420129096229207	0.1862078893335371	-0.2321475889772203	-0.258405507721022	-0.04430714145472215	0.08422764223523863	0.08422764223523917	0.1715500392824754	0.174501405472665	0.03668488953882507	-0.002504536627402139	-0.08475791175398743	-0.03675165973639543	-0.02849530280091267	0.3892466971317131	-0.001031811807492853	0.1254996123957131	-0.2205083562929711	0.4325548132810359	0.432554813281036	-0.1134311555447009	-0.0005977062562224325	0.1638808942324957	0.03558333552341988	0.206375064976319	-0.1887485481177411	-0.04037319176776086	-0.3976189204881821	0.3892399209694531	-0.1114561121261003	-0.1044615224795156	-39.43887817908697	77.04540872802083	-25.50892281715055	-6.217553380173279	-37.72949138723685	-674.4168618690676	82.07482782135941	-1.517268162425548	-0.7047453769621135	-0.5741542467108071	7.166841127496888	-0.07304749578675052	2.327428464730894	-3.99595185992043	8.004017221224714	8.00401722122464	-1.931708462743176	-0.0626154050714139	2.980034383595832	0.5908722091353027	1.811210373103321e-07	1.007779907602879e-08	-1.343311782421362e-06	1.514293039456105e-07	1.498840494426864e-07	-6.511434829097942e-07	-5.210892664121338e-07
